<svg xmlns="http://www.w3.org/2000/svg" width="1920" height="1080"><path d="M264,1316L-55,1302L539,1343Z" fill="#7b818e" stroke="#7b818e" stroke-width="1.51"/><path d="M791,1334L539,1343L1077,1341Z" fill="#416c8e" stroke="#416c8e" stroke-width="1.51"/><path d="M630,-262L1172,-243L1496,-254Z" fill="#a7d1cb" stroke="#a7d1cb" stroke-width="1.51"/><path d="M1657,1329L1077,1341L1959,1339Z" fill="#183e83" stroke="#183e83" stroke-width="1.51"/><path d="M1770,1308L1657,1329L1959,1339Z" fill="#1a2f7d" stroke="#1a2f7d" stroke-width="1.51"/><path d="M1794,-251L1951,-195L2032,-201Z" fill="#978fab" stroke="#978fab" stroke-width="1.51"/><path d="M2046,-82L2040,85L2091,364Z" fill="#778092" stroke="#778092" stroke-width="1.51"/><path d="M2040,85L2041,285L2091,364Z" fill="#637993" stroke="#637993" stroke-width="1.51"/><path d="M2046,-82L2091,364L2127,559Z" fill="#5a7590" stroke="#5a7590" stroke-width="1.51"/><path d="M1945,669L2095,723L2127,559Z" fill="#2a6196" stroke="#2a6196" stroke-width="1.51"/><path d="M1963,546L1945,669L2127,559Z" fill="#32689c" stroke="#32689c" stroke-width="1.51"/><path d="M2091,364L1963,546L2127,559Z" fill="#3c6c96" stroke="#3c6c96" stroke-width="1.51"/><path d="M1953,1134L2102,1177L2131,934Z" fill="#1c3483" stroke="#1c3483" stroke-width="1.51"/><path d="M1887,988L1953,1134L2131,934Z" fill="#203d8d" stroke="#203d8d" stroke-width="1.51"/><path d="M2032,790L1924,867L2131,934Z" fill="#204d92" stroke="#204d92" stroke-width="1.51"/><path d="M1924,867L1887,988L2131,934Z" fill="#204793" stroke="#204793" stroke-width="1.51"/><path d="M2095,723L2032,790L2131,934Z" fill="#1e508e" stroke="#1e508e" stroke-width="1.51"/><path d="M2102,1177L2093,1307L2131,934Z" fill="#192c7c" stroke="#192c7c" stroke-width="1.51"/><path d="M2127,559L2095,723L2131,934Z" fill="#1e578f" stroke="#1e578f" stroke-width="1.51"/><path d="M1970,-36L2040,85L2046,-82Z" fill="#868695" stroke="#868695" stroke-width="1.51"/><path d="M2040,85L1944,108L2041,285Z" fill="#758097" stroke="#758097" stroke-width="1.51"/><path d="M1886,371L1963,546L2091,364Z" fill="#4a749d" stroke="#4a749d" stroke-width="1.51"/><path d="M1959,1339L2093,1307L2102,1177Z" fill="#14266f" stroke="#14266f" stroke-width="1.51"/><path d="M1953,1134L1959,1339L2102,1177Z" fill="#1a2b7c" stroke="#1a2b7c" stroke-width="1.51"/><path d="M1944,108L1965,291L2041,285Z" fill="#6a7d9b" stroke="#6a7d9b" stroke-width="1.51"/><path d="M1965,291L1886,371L2091,364Z" fill="#55789c" stroke="#55789c" stroke-width="1.51"/><path d="M1945,669L2032,790L2095,723Z" fill="#255c99" stroke="#255c99" stroke-width="1.51"/><path d="M2041,285L1965,291L2091,364Z" fill="#587796" stroke="#587796" stroke-width="1.51"/><path d="M1970,-36L1944,108L2040,85Z" fill="#828599" stroke="#828599" stroke-width="1.51"/><path d="M2032,-201L1951,-195L2046,-82Z" fill="#8f8a9d" stroke="#8f8a9d" stroke-width="1.51"/><path d="M1951,-195L1970,-36L2046,-82Z" fill="#8f8a9b" stroke="#8f8a9b" stroke-width="1.51"/><path d="M630,-262L921,-218L1172,-243Z" fill="#afdcca" stroke="#afdcca" stroke-width="1.51"/><path d="M1945,669L1924,867L2032,790Z" fill="#255a9d" stroke="#255a9d" stroke-width="1.51"/><path d="M1824,821L1924,867L1945,669Z" fill="#295ca3" stroke="#295ca3" stroke-width="1.51"/><path d="M1887,988L1809,1112L1953,1134Z" fill="#253c95" stroke="#253c95" stroke-width="1.51"/><path d="M1809,1112L1770,1308L1953,1134Z" fill="#233390" stroke="#233390" stroke-width="1.51"/><path d="M1953,1134L1770,1308L1959,1339Z" fill="#1d2c81" stroke="#1d2c81" stroke-width="1.51"/><path d="M1776,654L1945,669L1963,546Z" fill="#366ba8" stroke="#366ba8" stroke-width="1.51"/><path d="M1807,495L1776,654L1963,546Z" fill="#3c72ad" stroke="#3c72ad" stroke-width="1.51"/><path d="M1886,371L1807,495L1963,546Z" fill="#4976a9" stroke="#4976a9" stroke-width="1.51"/><path d="M1944,108L1838,200L1965,291Z" fill="#7483a1" stroke="#7483a1" stroke-width="1.51"/><path d="M1774,36L1944,108L1970,-36Z" fill="#8a8ba3" stroke="#8a8ba3" stroke-width="1.51"/><path d="M1839,-115L1774,36L1970,-36Z" fill="#938fa6" stroke="#938fa6" stroke-width="1.51"/><path d="M1951,-195L1839,-115L1970,-36Z" fill="#948da3" stroke="#948da3" stroke-width="1.51"/><path d="M1838,200L1886,371L1965,291Z" fill="#657ea4" stroke="#657ea4" stroke-width="1.51"/><path d="M1776,654L1824,821L1945,669Z" fill="#2f66ab" stroke="#2f66ab" stroke-width="1.51"/><path d="M1794,-251L1839,-115L1951,-195Z" fill="#9a92b0" stroke="#9a92b0" stroke-width="1.51"/><path d="M1774,36L1838,200L1944,108Z" fill="#848ba7" stroke="#848ba7" stroke-width="1.51"/><path d="M1824,821L1887,988L1924,867Z" fill="#27509f" stroke="#27509f" stroke-width="1.51"/><path d="M1382,1251L1077,1341L1657,1329Z" fill="#1e4f8f" stroke="#1e4f8f" stroke-width="1.51"/><path d="M1838,200L1749,398L1886,371Z" fill="#5f81aa" stroke="#5f81aa" stroke-width="1.51"/><path d="M1749,398L1807,495L1886,371Z" fill="#517dac" stroke="#517dac" stroke-width="1.51"/><path d="M1824,821L1739,1020L1887,988Z" fill="#264da0" stroke="#264da0" stroke-width="1.51"/><path d="M1739,1020L1809,1112L1887,988Z" fill="#26449b" stroke="#26449b" stroke-width="1.51"/><path d="M1626,241L1647,366L1749,398Z" fill="#5c8baf" stroke="#5c8baf" stroke-width="1.51"/><path d="M1654,1135L1770,1308L1809,1112Z" fill="#243b94" stroke="#243b94" stroke-width="1.51"/><path d="M1638,836L1739,1020L1824,821Z" fill="#2759a6" stroke="#2759a6" stroke-width="1.51"/><path d="M1776,654L1658,731L1824,821Z" fill="#2b6bae" stroke="#2b6bae" stroke-width="1.51"/><path d="M1774,36L1626,241L1838,200Z" fill="#7e90ab" stroke="#7e90ab" stroke-width="1.51"/><path d="M1626,241L1749,398L1838,200Z" fill="#6889ac" stroke="#6889ac" stroke-width="1.51"/><path d="M1794,-251L1676,-68L1839,-115Z" fill="#9a98af" stroke="#9a98af" stroke-width="1.51"/><path d="M1676,-68L1774,36L1839,-115Z" fill="#9597a9" stroke="#9597a9" stroke-width="1.51"/><path d="M1496,-254L1596,-183L1794,-251Z" fill="#9ca4ba" stroke="#9ca4ba" stroke-width="1.51"/><path d="M1585,551L1776,654L1807,495Z" fill="#3a7bb1" stroke="#3a7bb1" stroke-width="1.51"/><path d="M1658,731L1638,836L1824,821Z" fill="#2867ac" stroke="#2867ac" stroke-width="1.51"/><path d="M1584,56L1626,241L1774,36Z" fill="#8599ad" stroke="#8599ad" stroke-width="1.51"/><path d="M1596,-183L1676,-68L1794,-251Z" fill="#9b9eb3" stroke="#9b9eb3" stroke-width="1.51"/><path d="M1739,1020L1654,1135L1809,1112Z" fill="#26449c" stroke="#26449c" stroke-width="1.51"/><path d="M1749,398L1585,551L1807,495Z" fill="#4781b1" stroke="#4781b1" stroke-width="1.51"/><path d="M1654,1135L1657,1329L1770,1308Z" fill="#1f3a8b" stroke="#1f3a8b" stroke-width="1.51"/><path d="M184,1307L-55,1302L264,1316Z" fill="#84848f" stroke="#84848f" stroke-width="1.51"/><path d="M1638,836L1595,1008L1739,1020Z" fill="#2458a5" stroke="#2458a5" stroke-width="1.51"/><path d="M1647,366L1585,551L1749,398Z" fill="#4d87b1" stroke="#4d87b1" stroke-width="1.51"/><path d="M1585,551L1658,731L1776,654Z" fill="#3278b1" stroke="#3278b1" stroke-width="1.51"/><path d="M1676,-68L1584,56L1774,36Z" fill="#8f9bac" stroke="#8f9bac" stroke-width="1.51"/><path d="M1595,1008L1654,1135L1739,1020Z" fill="#264da0" stroke="#264da0" stroke-width="1.51"/><path d="M1172,-243L1295,-213L1496,-254Z" fill="#a1bfc7" stroke="#a1bfc7" stroke-width="1.51"/><path d="M1584,56L1520,104L1626,241Z" fill="#839fb0" stroke="#839fb0" stroke-width="1.51"/><path d="M1536,970L1595,1008L1638,836Z" fill="#235ea8" stroke="#235ea8" stroke-width="1.51"/><path d="M1466,493L1585,551L1647,366Z" fill="#458cb5" stroke="#458cb5" stroke-width="1.51"/><path d="M1453,1241L1382,1251L1657,1329Z" fill="#1f478f" stroke="#1f478f" stroke-width="1.51"/><path d="M1654,1135L1480,1174L1657,1329Z" fill="#224395" stroke="#224395" stroke-width="1.51"/><path d="M1480,1174L1453,1241L1657,1329Z" fill="#204691" stroke="#204691" stroke-width="1.51"/><path d="M1585,551L1453,667L1658,731Z" fill="#2e7fb5" stroke="#2e7fb5" stroke-width="1.51"/><path d="M1596,-183L1460,-22L1676,-68Z" fill="#99a6b0" stroke="#99a6b0" stroke-width="1.51"/><path d="M1460,-22L1584,56L1676,-68Z" fill="#92a4af" stroke="#92a4af" stroke-width="1.51"/><path d="M1626,241L1482,241L1647,366Z" fill="#6695b1" stroke="#6695b1" stroke-width="1.51"/><path d="M1595,1008L1480,1174L1654,1135Z" fill="#264ea0" stroke="#264ea0" stroke-width="1.51"/><path d="M1453,667L1638,836L1658,731Z" fill="#2476b3" stroke="#2476b3" stroke-width="1.51"/><path d="M1436,376L1466,493L1647,366Z" fill="#4f93b6" stroke="#4f93b6" stroke-width="1.51"/><path d="M1453,667L1441,881L1638,836Z" fill="#2375b3" stroke="#2375b3" stroke-width="1.51"/><path d="M1482,241L1436,376L1647,366Z" fill="#5c97b4" stroke="#5c97b4" stroke-width="1.51"/><path d="M1520,104L1482,241L1626,241Z" fill="#779eb1" stroke="#779eb1" stroke-width="1.51"/><path d="M1441,881L1536,970L1638,836Z" fill="#2367ad" stroke="#2367ad" stroke-width="1.51"/><path d="M1536,970L1480,1174L1595,1008Z" fill="#2556a4" stroke="#2556a4" stroke-width="1.51"/><path d="M1496,-254L1460,-22L1596,-183Z" fill="#9cacb7" stroke="#9cacb7" stroke-width="1.51"/><path d="M1388,1027L1480,1174L1536,970Z" fill="#265ba7" stroke="#265ba7" stroke-width="1.51"/><path d="M1460,-22L1520,104L1584,56Z" fill="#8ca6b1" stroke="#8ca6b1" stroke-width="1.51"/><path d="M1466,493L1453,667L1585,551Z" fill="#348bb8" stroke="#348bb8" stroke-width="1.51"/><path d="M921,-218L1053,-217L1172,-243Z" fill="#a8d3c9" stroke="#a8d3c9" stroke-width="1.51"/><path d="M1370,-47L1460,-22L1496,-254Z" fill="#9bb2b6" stroke="#9bb2b6" stroke-width="1.51"/><path d="M1359,142L1482,241L1520,104Z" fill="#7fa8b5" stroke="#7fa8b5" stroke-width="1.51"/><path d="M1441,881L1388,1027L1536,970Z" fill="#2366ac" stroke="#2366ac" stroke-width="1.51"/><path d="M1332,709L1441,881L1453,667Z" fill="#2183ba" stroke="#2183ba" stroke-width="1.51"/><path d="M1388,1027L1375,1142L1480,1174Z" fill="#2959a6" stroke="#2959a6" stroke-width="1.51"/><path d="M1295,-213L1370,-47L1496,-254Z" fill="#9eb8be" stroke="#9eb8be" stroke-width="1.51"/><path d="M1460,-22L1359,142L1520,104Z" fill="#8bacb4" stroke="#8bacb4" stroke-width="1.51"/><path d="M1152,1263L1077,1341L1382,1251Z" fill="#255d97" stroke="#255d97" stroke-width="1.51"/><path d="M1326,564L1453,667L1466,493Z" fill="#3393bc" stroke="#3393bc" stroke-width="1.51"/><path d="M1332,709L1363,891L1441,881Z" fill="#237db7" stroke="#237db7" stroke-width="1.51"/><path d="M1363,891L1388,1027L1441,881Z" fill="#246eb0" stroke="#246eb0" stroke-width="1.51"/><path d="M1370,-47L1359,142L1460,-22Z" fill="#90b3b6" stroke="#90b3b6" stroke-width="1.51"/><path d="M1324,207L1436,376L1482,241Z" fill="#69a4b7" stroke="#69a4b7" stroke-width="1.51"/><path d="M1359,142L1324,207L1482,241Z" fill="#79acb8" stroke="#79acb8" stroke-width="1.51"/><path d="M1375,1142L1453,1241L1480,1174Z" fill="#27529f" stroke="#27529f" stroke-width="1.51"/><path d="M1375,1142L1382,1251L1453,1241Z" fill="#26539c" stroke="#26539c" stroke-width="1.51"/><path d="M1436,376L1306,436L1466,493Z" fill="#4b9cbb" stroke="#4b9cbb" stroke-width="1.51"/><path d="M1306,436L1326,564L1466,493Z" fill="#3f9cbd" stroke="#3f9cbd" stroke-width="1.51"/><path d="M1326,564L1332,709L1453,667Z" fill="#2c90bd" stroke="#2c90bd" stroke-width="1.51"/><path d="M1324,207L1306,436L1436,376Z" fill="#5aa6ba" stroke="#5aa6ba" stroke-width="1.51"/><path d="M1332,709L1152,784L1363,891Z" fill="#2089bc" stroke="#2089bc" stroke-width="1.51"/><path d="M1168,134L1359,142L1370,-47Z" fill="#8cbaba" stroke="#8cbaba" stroke-width="1.51"/><path d="M1375,1142L1186,1115L1382,1251Z" fill="#2a5da7" stroke="#2a5da7" stroke-width="1.51"/><path d="M1186,1115L1152,1263L1382,1251Z" fill="#2960a2" stroke="#2960a2" stroke-width="1.51"/><path d="M1238,1045L1375,1142L1388,1027Z" fill="#2865ab" stroke="#2865ab" stroke-width="1.51"/><path d="M1363,891L1238,1045L1388,1027Z" fill="#256eb0" stroke="#256eb0" stroke-width="1.51"/><path d="M1130,358L1306,436L1324,207Z" fill="#5bafbe" stroke="#5bafbe" stroke-width="1.51"/><path d="M1295,-213L1155,-93L1370,-47Z" fill="#9ec2be" stroke="#9ec2be" stroke-width="1.51"/><path d="M1155,-93L1168,134L1370,-47Z" fill="#96c2bb" stroke="#96c2bb" stroke-width="1.51"/><path d="M1238,1045L1186,1115L1375,1142Z" fill="#2a68ad" stroke="#2a68ad" stroke-width="1.51"/><path d="M1187,706L1152,784L1332,709Z" fill="#2394c1" stroke="#2394c1" stroke-width="1.51"/><path d="M1152,784L1238,1045L1363,891Z" fill="#237db7" stroke="#237db7" stroke-width="1.51"/><path d="M1140,220L1130,358L1324,207Z" fill="#6db7be" stroke="#6db7be" stroke-width="1.51"/><path d="M1326,564L1187,706L1332,709Z" fill="#2896c0" stroke="#2896c0" stroke-width="1.51"/><path d="M1168,134L1324,207L1359,142Z" fill="#80b7bb" stroke="#80b7bb" stroke-width="1.51"/><path d="M1306,436L1152,500L1326,564Z" fill="#3da5c1" stroke="#3da5c1" stroke-width="1.51"/><path d="M1152,500L1187,706L1326,564Z" fill="#31a1c2" stroke="#31a1c2" stroke-width="1.51"/><path d="M1168,134L1140,220L1324,207Z" fill="#7dbbbc" stroke="#7dbbbc" stroke-width="1.51"/><path d="M1172,-243L1155,-93L1295,-213Z" fill="#a2c8c4" stroke="#a2c8c4" stroke-width="1.51"/><path d="M1130,358L1152,500L1306,436Z" fill="#4dadc0" stroke="#4dadc0" stroke-width="1.51"/><path d="M1152,500L1072,547L1187,706Z" fill="#36a7c3" stroke="#36a7c3" stroke-width="1.51"/><path d="M994,952L1186,1115L1238,1045Z" fill="#3176b1" stroke="#3176b1" stroke-width="1.51"/><path d="M1152,784L994,952L1238,1045Z" fill="#2d82b7" stroke="#2d82b7" stroke-width="1.51"/><path d="M1130,358L1063,422L1152,500Z" fill="#51b3c1" stroke="#51b3c1" stroke-width="1.51"/><path d="M1029,807L994,952L1152,784Z" fill="#3091bc" stroke="#3091bc" stroke-width="1.51"/><path d="M1011,-55L987,33L1155,-93Z" fill="#9fcfbc" stroke="#9fcfbc" stroke-width="1.51"/><path d="M1155,-93L987,33L1168,134Z" fill="#96c9bc" stroke="#96c9bc" stroke-width="1.51"/><path d="M1053,-217L1155,-93L1172,-243Z" fill="#a4cdc5" stroke="#a4cdc5" stroke-width="1.51"/><path d="M1007,1115L1152,1263L1186,1115Z" fill="#356aaa" stroke="#356aaa" stroke-width="1.51"/><path d="M994,952L1007,1115L1186,1115Z" fill="#3678b1" stroke="#3678b1" stroke-width="1.51"/><path d="M1007,721L1152,784L1187,706Z" fill="#2a9bc1" stroke="#2a9bc1" stroke-width="1.51"/><path d="M1072,547L1007,721L1187,706Z" fill="#33a3c2" stroke="#33a3c2" stroke-width="1.51"/><path d="M995,193L1140,220L1168,134Z" fill="#81c2bd" stroke="#81c2bd" stroke-width="1.51"/><path d="M987,33L995,193L1168,134Z" fill="#8ecabc" stroke="#8ecabc" stroke-width="1.51"/><path d="M995,193L1130,358L1140,220Z" fill="#72bebe" stroke="#72bebe" stroke-width="1.51"/><path d="M1007,1115L1077,1341L1152,1263Z" fill="#31679f" stroke="#31679f" stroke-width="1.51"/><path d="M1007,721L1029,807L1152,784Z" fill="#2d9ac0" stroke="#2d9ac0" stroke-width="1.51"/><path d="M1053,-217L1011,-55L1155,-93Z" fill="#a4d0bf" stroke="#a4d0bf" stroke-width="1.51"/><path d="M1063,422L1072,547L1152,500Z" fill="#46b0c2" stroke="#46b0c2" stroke-width="1.51"/><path d="M995,193L930,398L1063,422Z" fill="#63bfc0" stroke="#63bfc0" stroke-width="1.51"/><path d="M995,193L1063,422L1130,358Z" fill="#64bbbf" stroke="#64bbbf" stroke-width="1.51"/><path d="M878,1192L887,1278L1007,1115Z" fill="#4073a6" stroke="#4073a6" stroke-width="1.51"/><path d="M921,-218L1011,-55L1053,-217Z" fill="#a8d6c3" stroke="#a8d6c3" stroke-width="1.51"/><path d="M875,548L1007,721L1072,547Z" fill="#3caec4" stroke="#3caec4" stroke-width="1.51"/><path d="M1063,422L930,398L1072,547Z" fill="#4fb6c2" stroke="#4fb6c2" stroke-width="1.51"/><path d="M930,398L875,548L1072,547Z" fill="#49b8c3" stroke="#49b8c3" stroke-width="1.51"/><path d="M887,1278L791,1334L1077,1341Z" fill="#366a93" stroke="#366a93" stroke-width="1.51"/><path d="M1007,1115L887,1278L1077,1341Z" fill="#366c9f" stroke="#366c9f" stroke-width="1.51"/><path d="M987,33L914,85L995,193Z" fill="#92d0bd" stroke="#92d0bd" stroke-width="1.51"/><path d="M875,548L899,719L1007,721Z" fill="#3eacc3" stroke="#3eacc3" stroke-width="1.51"/><path d="M860,233L930,398L995,193Z" fill="#75c6be" stroke="#75c6be" stroke-width="1.51"/><path d="M994,952L867,1027L1007,1115Z" fill="#3b81b2" stroke="#3b81b2" stroke-width="1.51"/><path d="M856,809L994,952L1029,807Z" fill="#3695bc" stroke="#3695bc" stroke-width="1.51"/><path d="M1007,721L899,719L1029,807Z" fill="#31a2c2" stroke="#31a2c2" stroke-width="1.51"/><path d="M899,719L856,809L1029,807Z" fill="#39a0c0" stroke="#39a0c0" stroke-width="1.51"/><path d="M837,-32L987,33L1011,-55Z" fill="#a0d5bc" stroke="#a0d5bc" stroke-width="1.51"/><path d="M921,-218L837,-32L1011,-55Z" fill="#a9d9bd" stroke="#a9d9bd" stroke-width="1.51"/><path d="M867,1027L878,1192L1007,1115Z" fill="#437aaf" stroke="#437aaf" stroke-width="1.51"/><path d="M856,809L867,1027L994,952Z" fill="#3f8eb7" stroke="#3f8eb7" stroke-width="1.51"/><path d="M914,85L860,233L995,193Z" fill="#8acebd" stroke="#8acebd" stroke-width="1.51"/><path d="M837,-32L914,85L987,33Z" fill="#9ed5bc" stroke="#9ed5bc" stroke-width="1.51"/><path d="M630,-262L740,-172L921,-218Z" fill="#b8e1c5" stroke="#b8e1c5" stroke-width="1.51"/><path d="M740,-172L837,-32L921,-218Z" fill="#b1ddbf" stroke="#b1ddbf" stroke-width="1.51"/><path d="M860,233L763,351L930,398Z" fill="#70c6be" stroke="#70c6be" stroke-width="1.51"/><path d="M738,513L875,548L930,398Z" fill="#59bdc2" stroke="#59bdc2" stroke-width="1.51"/><path d="M763,351L738,513L930,398Z" fill="#67c2c0" stroke="#67c2c0" stroke-width="1.51"/><path d="M856,809L744,1027L867,1027Z" fill="#4a8eb5" stroke="#4a8eb5" stroke-width="1.51"/><path d="M867,1027L751,1140L878,1192Z" fill="#4d7cad" stroke="#4d7cad" stroke-width="1.51"/><path d="M875,548L717,715L899,719Z" fill="#4cb0c1" stroke="#4cb0c1" stroke-width="1.51"/><path d="M718,44L860,233L914,85Z" fill="#9ad4ba" stroke="#9ad4ba" stroke-width="1.51"/><path d="M740,-172L785,-39L837,-32Z" fill="#b1ddb9" stroke="#b1ddb9" stroke-width="1.51"/><path d="M837,-32L718,44L914,85Z" fill="#a4d8ba" stroke="#a4d8ba" stroke-width="1.51"/><path d="M700,827L744,1027L856,809Z" fill="#5098b8" stroke="#5098b8" stroke-width="1.51"/><path d="M738,513L717,715L875,548Z" fill="#56b8c1" stroke="#56b8c1" stroke-width="1.51"/><path d="M717,715L856,809L899,719Z" fill="#48a8c0" stroke="#48a8c0" stroke-width="1.51"/><path d="M751,1140L791,1334L878,1192Z" fill="#4a75a1" stroke="#4a75a1" stroke-width="1.51"/><path d="M878,1192L791,1334L887,1278Z" fill="#42709b" stroke="#42709b" stroke-width="1.51"/><path d="M785,-39L718,44L837,-32Z" fill="#abdbb9" stroke="#abdbb9" stroke-width="1.51"/><path d="M730,286L763,351L860,233Z" fill="#7ecbbd" stroke="#7ecbbd" stroke-width="1.51"/><path d="M718,44L730,286L860,233Z" fill="#93d3ba" stroke="#93d3ba" stroke-width="1.51"/><path d="M744,1027L751,1140L867,1027Z" fill="#5083af" stroke="#5083af" stroke-width="1.51"/><path d="M717,715L700,827L856,809Z" fill="#50a6bd" stroke="#50a6bd" stroke-width="1.51"/><path d="M189,-232L402,-190L630,-262Z" fill="#dcf1c1" stroke="#dcf1c1" stroke-width="1.51"/><path d="M718,44L539,93L730,286Z" fill="#a3dab8" stroke="#a3dab8" stroke-width="1.51"/><path d="M613,595L717,715L738,513Z" fill="#5ebac0" stroke="#5ebac0" stroke-width="1.51"/><path d="M700,827L632,948L744,1027Z" fill="#5895b4" stroke="#5895b4" stroke-width="1.51"/><path d="M740,-172L589,-7L785,-39Z" fill="#b6e1b7" stroke="#b6e1b7" stroke-width="1.51"/><path d="M751,1140L539,1343L791,1334Z" fill="#517497" stroke="#517497" stroke-width="1.51"/><path d="M616,1094L539,1343L751,1140Z" fill="#5e7ca3" stroke="#5e7ca3" stroke-width="1.51"/><path d="M560,388L738,513L763,351Z" fill="#73c7be" stroke="#73c7be" stroke-width="1.51"/><path d="M589,-7L718,44L785,-39Z" fill="#b0deb7" stroke="#b0deb7" stroke-width="1.51"/><path d="M539,93L530,271L730,286Z" fill="#9dd8b9" stroke="#9dd8b9" stroke-width="1.51"/><path d="M744,1027L616,1094L751,1140Z" fill="#5984ad" stroke="#5984ad" stroke-width="1.51"/><path d="M730,286L560,388L763,351Z" fill="#7ccbbc" stroke="#7ccbbc" stroke-width="1.51"/><path d="M630,-262L589,-7L740,-172Z" fill="#bde4bd" stroke="#bde4bd" stroke-width="1.51"/><path d="M632,948L616,1094L744,1027Z" fill="#5b8caf" stroke="#5b8caf" stroke-width="1.51"/><path d="M560,388L613,595L738,513Z" fill="#6ec5bf" stroke="#6ec5bf" stroke-width="1.51"/><path d="M613,595L596,708L717,715Z" fill="#61b6bf" stroke="#61b6bf" stroke-width="1.51"/><path d="M603,791L700,827L717,715Z" fill="#59aabc" stroke="#59aabc" stroke-width="1.51"/><path d="M530,271L560,388L730,286Z" fill="#8ad1ba" stroke="#8ad1ba" stroke-width="1.51"/><path d="M596,708L603,791L717,715Z" fill="#5fb0be" stroke="#5fb0be" stroke-width="1.51"/><path d="M589,-7L539,93L718,44Z" fill="#b3e0b7" stroke="#b3e0b7" stroke-width="1.51"/><path d="M603,791L632,948L700,827Z" fill="#5da1b8" stroke="#5da1b8" stroke-width="1.51"/><path d="M482,1314L264,1316L539,1343Z" fill="#6c7b8d" stroke="#6c7b8d" stroke-width="1.51"/><path d="M402,-190L422,-9L589,-7Z" fill="#cdebb4" stroke="#cdebb4" stroke-width="1.51"/><path d="M560,388L483,422L613,595Z" fill="#7ecabd" stroke="#7ecabd" stroke-width="1.51"/><path d="M483,422L433,499L613,595Z" fill="#80cabe" stroke="#80cabe" stroke-width="1.51"/><path d="M482,1314L539,1343L616,1094Z" fill="#657c9a" stroke="#657c9a" stroke-width="1.51"/><path d="M473,1111L482,1314L616,1094Z" fill="#6f82a6" stroke="#6f82a6" stroke-width="1.51"/><path d="M479,960L473,1111L616,1094Z" fill="#708ead" stroke="#708ead" stroke-width="1.51"/><path d="M402,-190L589,-7L630,-262Z" fill="#caeabc" stroke="#caeabc" stroke-width="1.51"/><path d="M603,791L467,889L632,948Z" fill="#69a2b6" stroke="#69a2b6" stroke-width="1.51"/><path d="M467,889L479,960L632,948Z" fill="#6e9cb2" stroke="#6e9cb2" stroke-width="1.51"/><path d="M479,960L616,1094L632,948Z" fill="#6892af" stroke="#6892af" stroke-width="1.51"/><path d="M460,720L596,708L613,595Z" fill="#6fbabe" stroke="#6fbabe" stroke-width="1.51"/><path d="M433,499L460,720L613,595Z" fill="#7ac3be" stroke="#7ac3be" stroke-width="1.51"/><path d="M596,708L460,720L603,791Z" fill="#6cb4bd" stroke="#6cb4bd" stroke-width="1.51"/><path d="M460,720L467,889L603,791Z" fill="#72aeba" stroke="#72aeba" stroke-width="1.51"/><path d="M426,252L530,271L539,93Z" fill="#abddb7" stroke="#abddb7" stroke-width="1.51"/><path d="M446,41L539,93L589,-7Z" fill="#bde4b6" stroke="#bde4b6" stroke-width="1.51"/><path d="M422,-9L446,41L589,-7Z" fill="#c5e7b5" stroke="#c5e7b5" stroke-width="1.51"/><path d="M-145,-188L33,-189L189,-232Z" fill="#f4fbc0" stroke="#f4fbc0" stroke-width="1.51"/><path d="M530,271L483,422L560,388Z" fill="#8ed2ba" stroke="#8ed2ba" stroke-width="1.51"/><path d="M426,252L483,422L530,271Z" fill="#9ad7b9" stroke="#9ad7b9" stroke-width="1.51"/><path d="M446,41L426,252L539,93Z" fill="#bbe4b6" stroke="#bbe4b6" stroke-width="1.51"/><path d="M330,195L426,252L446,41Z" fill="#bde4b5" stroke="#bde4b5" stroke-width="1.51"/><path d="M433,499L321,657L460,720Z" fill="#86c5bc" stroke="#86c5bc" stroke-width="1.51"/><path d="M473,1111L310,1183L482,1314Z" fill="#7884a1" stroke="#7884a1" stroke-width="1.51"/><path d="M306,127L330,195L446,41Z" fill="#c8e9b4" stroke="#c8e9b4" stroke-width="1.51"/><path d="M460,720L280,793L467,889Z" fill="#81b2b9" stroke="#81b2b9" stroke-width="1.51"/><path d="M340,948L473,1111L479,960Z" fill="#7b97ae" stroke="#7b97ae" stroke-width="1.51"/><path d="M467,889L340,948L479,960Z" fill="#7ba0b2" stroke="#7ba0b2" stroke-width="1.51"/><path d="M310,1183L264,1316L482,1314Z" fill="#798195" stroke="#798195" stroke-width="1.51"/><path d="M298,391L433,499L483,422Z" fill="#95d3bb" stroke="#95d3bb" stroke-width="1.51"/><path d="M426,252L298,391L483,422Z" fill="#9ed8b9" stroke="#9ed8b9" stroke-width="1.51"/><path d="M340,948L310,1183L473,1111Z" fill="#8292aa" stroke="#8292aa" stroke-width="1.51"/><path d="M280,793L340,948L467,889Z" fill="#84aab4" stroke="#84aab4" stroke-width="1.51"/><path d="M321,657L280,793L460,720Z" fill="#88bebb" stroke="#88bebb" stroke-width="1.51"/><path d="M402,-190L236,-42L422,-9Z" fill="#dbf0b3" stroke="#dbf0b3" stroke-width="1.51"/><path d="M285,499L321,657L433,499Z" fill="#90cfbd" stroke="#90cfbd" stroke-width="1.51"/><path d="M298,391L285,499L433,499Z" fill="#9ad4bb" stroke="#9ad4bb" stroke-width="1.51"/><path d="M422,-9L306,127L446,41Z" fill="#cbeab4" stroke="#cbeab4" stroke-width="1.51"/><path d="M230,-171L236,-42L402,-190Z" fill="#e1f4b7" stroke="#e1f4b7" stroke-width="1.51"/><path d="M330,195L298,391L426,252Z" fill="#afdeb7" stroke="#afdeb7" stroke-width="1.51"/><path d="M189,-232L230,-171L402,-190Z" fill="#e5f5bd" stroke="#e5f5bd" stroke-width="1.51"/><path d="M236,-42L306,127L422,-9Z" fill="#d3eeb4" stroke="#d3eeb4" stroke-width="1.51"/><path d="M115,963L81,1104L310,1183Z" fill="#9096a9" stroke="#9096a9" stroke-width="1.51"/><path d="M285,499L187,686L321,657Z" fill="#94cbbc" stroke="#94cbbc" stroke-width="1.51"/><path d="M187,686L280,793L321,657Z" fill="#90c1bb" stroke="#90c1bb" stroke-width="1.51"/><path d="M135,196L298,391L330,195Z" fill="#b9e2b6" stroke="#b9e2b6" stroke-width="1.51"/><path d="M280,793L113,861L340,948Z" fill="#8daeb5" stroke="#8daeb5" stroke-width="1.51"/><path d="M113,861L115,963L340,948Z" fill="#90a8b1" stroke="#90a8b1" stroke-width="1.51"/><path d="M115,963L310,1183L340,948Z" fill="#8b9aac" stroke="#8b9aac" stroke-width="1.51"/><path d="M135,196L103,385L298,391Z" fill="#b3e0b7" stroke="#b3e0b7" stroke-width="1.51"/><path d="M306,127L135,196L330,195Z" fill="#c6e8b5" stroke="#c6e8b5" stroke-width="1.51"/><path d="M236,-42L115,91L306,127Z" fill="#d7efb3" stroke="#d7efb3" stroke-width="1.51"/><path d="M184,1307L264,1316L310,1183Z" fill="#808495" stroke="#808495" stroke-width="1.51"/><path d="M81,586L187,686L285,499Z" fill="#9acfbc" stroke="#9acfbc" stroke-width="1.51"/><path d="M81,1104L184,1307L310,1183Z" fill="#8b8aa0" stroke="#8b8aa0" stroke-width="1.51"/><path d="M103,385L285,499L298,391Z" fill="#a5d9ba" stroke="#a5d9ba" stroke-width="1.51"/><path d="M115,91L135,196L306,127Z" fill="#d1edb3" stroke="#d1edb3" stroke-width="1.51"/><path d="M103,385L81,586L285,499Z" fill="#a4d7bb" stroke="#a4d7bb" stroke-width="1.51"/><path d="M187,686L113,861L280,793Z" fill="#92bbb9" stroke="#92bbb9" stroke-width="1.51"/><path d="M230,-171L102,-49L236,-42Z" fill="#e6f5b3" stroke="#e6f5b3" stroke-width="1.51"/><path d="M102,-49L115,91L236,-42Z" fill="#e1f3b2" stroke="#e1f3b2" stroke-width="1.51"/><path d="M33,-189L102,-49L189,-232Z" fill="#eef9b9" stroke="#eef9b9" stroke-width="1.51"/><path d="M189,-232L102,-49L230,-171Z" fill="#e9f6b8" stroke="#e9f6b8" stroke-width="1.51"/><path d="M33,-189L29,-108L102,-49Z" fill="#eff9b5" stroke="#eff9b5" stroke-width="1.51"/><path d="M81,1104L0,1141L184,1307Z" fill="#928ea2" stroke="#928ea2" stroke-width="1.51"/><path d="M0,1141L-55,1302L184,1307Z" fill="#8e8a99" stroke="#8e8a99" stroke-width="1.51"/><path d="M7,661L113,861L187,686Z" fill="#9ac3ba" stroke="#9ac3ba" stroke-width="1.51"/><path d="M81,586L7,661L187,686Z" fill="#9fccbb" stroke="#9fccbb" stroke-width="1.51"/><path d="M-2,402L-55,534L81,586Z" fill="#aad9be" stroke="#aad9be" stroke-width="1.51"/><path d="M-2,402L81,586L103,385Z" fill="#aedbba" stroke="#aedbba" stroke-width="1.51"/><path d="M10,185L-2,402L103,385Z" fill="#bce3b8" stroke="#bce3b8" stroke-width="1.51"/><path d="M7,661L-27,818L113,861Z" fill="#9dbfba" stroke="#9dbfba" stroke-width="1.51"/><path d="M102,-49L-14,96L115,91Z" fill="#e1f3b2" stroke="#e1f3b2" stroke-width="1.51"/><path d="M115,91L10,185L135,196Z" fill="#d4eeb3" stroke="#d4eeb3" stroke-width="1.51"/><path d="M10,185L103,385L135,196Z" fill="#c5e7b5" stroke="#c5e7b5" stroke-width="1.51"/><path d="M-27,818L-65,946L113,861Z" fill="#9bb2b7" stroke="#9bb2b7" stroke-width="1.51"/><path d="M-14,96L10,185L115,91Z" fill="#dbf1b4" stroke="#dbf1b4" stroke-width="1.51"/><path d="M113,861L-65,946L115,963Z" fill="#99abb1" stroke="#99abb1" stroke-width="1.51"/><path d="M-65,946L81,1104L115,963Z" fill="#99a1ae" stroke="#99a1ae" stroke-width="1.51"/><path d="M-65,946L0,1141L81,1104Z" fill="#999bad" stroke="#999bad" stroke-width="1.51"/><path d="M29,-108L-14,96L102,-49Z" fill="#e8f6b3" stroke="#e8f6b3" stroke-width="1.51"/><path d="M-55,534L7,661L81,586Z" fill="#a4d2bf" stroke="#a4d2bf" stroke-width="1.51"/><path d="M-164,216L-167,393L-2,402Z" fill="#bee5c2" stroke="#bee5c2" stroke-width="1.51"/><path d="M-122,1183L-55,1302L0,1141Z" fill="#948ea6" stroke="#948ea6" stroke-width="1.51"/><path d="M-162,719L-27,818L7,661Z" fill="#a0c5c2" stroke="#a0c5c2" stroke-width="1.51"/><path d="M-164,216L-2,402L10,185Z" fill="#c8e9bd" stroke="#c8e9bd" stroke-width="1.51"/><path d="M-128,-114L-14,96L29,-108Z" fill="#edf8b8" stroke="#edf8b8" stroke-width="1.51"/><path d="M-128,-114L29,-108L33,-189Z" fill="#f2fabc" stroke="#f2fabc" stroke-width="1.51"/><path d="M-145,-188L-128,-114L33,-189Z" fill="#f6fbc3" stroke="#f6fbc3" stroke-width="1.51"/><path d="M-128,-114L-209,49L-14,96Z" fill="#ebf7bd" stroke="#ebf7bd" stroke-width="1.51"/><path d="M-143,486L-55,534L-2,402Z" fill="#afdcc2" stroke="#afdcc2" stroke-width="1.51"/><path d="M-65,946L-122,1183L0,1141Z" fill="#9a99b1" stroke="#9a99b1" stroke-width="1.51"/><path d="M-55,534L-162,719L7,661Z" fill="#a4cfc3" stroke="#a4cfc3" stroke-width="1.51"/><path d="M-14,96L-164,216L10,185Z" fill="#d8f0bb" stroke="#d8f0bb" stroke-width="1.51"/><path d="M-215,986L-122,1183L-65,946Z" fill="#9ca0b8" stroke="#9ca0b8" stroke-width="1.51"/><path d="M-132,865L-65,946L-27,818Z" fill="#9db3bc" stroke="#9db3bc" stroke-width="1.51"/><path d="M-167,393L-143,486L-2,402Z" fill="#b5dfc3" stroke="#b5dfc3" stroke-width="1.51"/><path d="M-209,49L-164,216L-14,96Z" fill="#e0f3bf" stroke="#e0f3bf" stroke-width="1.51"/><path d="M-162,719L-132,865L-27,818Z" fill="#9fbdc2" stroke="#9fbdc2" stroke-width="1.51"/><path d="M-122,1183L-158,1289L-55,1302Z" fill="#908ba1" stroke="#908ba1" stroke-width="1.51"/><path d="M-143,486L-162,719L-55,534Z" fill="#a8d5c7" stroke="#a8d5c7" stroke-width="1.51"/><path d="M-132,865L-215,986L-65,946Z" fill="#9dacbc" stroke="#9dacbc" stroke-width="1.51"/><path d="M-215,986L-158,1289L-122,1183Z" fill="#9c93b4" stroke="#9c93b4" stroke-width="1.51"/><path d="M-145,-188L-209,49L-128,-114Z" fill="#f4fbc0" stroke="#f4fbc0" stroke-width="1.51"/><path d="M-162,719L-215,986L-132,865Z" fill="#a0b6c3" stroke="#a0b6c3" stroke-width="1.51"/><path d="M-167,393L-162,719L-143,486Z" fill="#acdaca" stroke="#acdaca" stroke-width="1.51"/><path d="M-167,393L-215,986L-162,719Z" fill="#a5caca" stroke="#a5caca" stroke-width="1.51"/><path d="M-209,49L-167,393L-164,216Z" fill="#d3edc4" stroke="#d3edc4" stroke-width="1.51"/><path d="M-209,49L-215,986L-167,393Z" fill="#b3ddca" stroke="#b3ddca" stroke-width="1.51"/></svg>